<?xml version="1.0" encoding="UTF-8" standalone="no"?>
<!DOCTYPE svg PUBLIC "-//W3C//DTD SVG 1.1//EN" "http://www.w3.org/Graphics/SVG/1.1/DTD/svg11.dtd">
<!-- Created with Vectornator (http://vectornator.io/) -->
<svg height="100%" stroke-miterlimit="10" style="fill-rule:nonzero;clip-rule:evenodd;stroke-linecap:round;stroke-linejoin:round;" version="1.1" viewBox="0 0 1024 1024" width="100%" xml:space="preserve" xmlns="http://www.w3.org/2000/svg" xmlns:vectornator="http://vectornator.io" xmlns:xlink="http://www.w3.org/1999/xlink">
<defs/>
<clipPath id="ArtboardFrame">
<rect height="1024" width="1024" x="0" y="0"/>
</clipPath>
<g clip-path="url(#ArtboardFrame)" id="Layer-1" vectornator:layerName="Layer 1">
<g opacity="1">
<g opacity="1">
<path d="M1023.4 922.861C1059.95 694.144-54.7598 925.062-54.7598 925.062C-54.7598 925.062 986.85 1151.58 1023.4 922.861Z" fill="#ff5d01" fill-rule="nonzero" opacity="1" stroke="#000000" stroke-linecap="butt" stroke-linejoin="round" stroke-opacity="0" stroke-width="2"/>
<path d="M540.506 667.268L428.81 790.132L324.362 912.273C316.753 920.853 368.442 944.969 376.05 936.391L466.078 832.774L578.999 701.388C587.891 717.21 527.824 644.448 540.506 667.268Z" fill="#ff5d01" fill-rule="nonzero" opacity="1" stroke="none"/>
</g>
<path d="M391.273 637.18L279.577 760.044L175.129 882.185C167.52 890.765 219.209 914.881 226.817 906.303L316.846 802.686L429.766 671.3C438.658 687.122 378.591 614.36 391.273 637.18Z" fill="#ff5d01" fill-rule="nonzero" opacity="1" stroke="none"/>
<path d="M211.465 680.252L99.7688 803.116L-4.67931 925.257C-12.2882 933.837 45.5421 935.949 53.1505 927.371L131.761 842.323L249.958 714.372C258.85 730.194 198.783 657.432 211.465 680.252Z" fill="#ff5d01" fill-rule="nonzero" opacity="1" stroke="none"/>
<path d="M710.528 653.489L598.832 776.354L494.384 898.495C486.775 907.074 538.464 931.19 546.072 922.613L636.1 818.996L749.021 687.61C757.913 703.432 697.846 630.669 710.528 653.489Z" fill="#ff5d01" fill-rule="nonzero" opacity="1" stroke="none"/>
<path d="M878.786 640.202L767.09 763.066L662.642 885.207C655.033 893.787 706.722 917.903 714.331 909.325L804.359 805.708L917.28 674.322C926.172 690.144 866.105 617.382 878.786 640.202Z" fill="#ff5d01" fill-rule="nonzero" opacity="1" stroke="none"/>
<path d="M868.051 540.08C882.471 541.266 896.891 542.452 911.799 542.779L975.623 544.177C914.853 402.724 611.621 227.239 490.541 167.146C304.802 9.03073 135.227 5.31647 22.4869 2.8471L13.7428 350.785C219.656 355.295 375.451 406.575 526.154 456.438C639.872 494.177 748.043 530.054 868.051 540.08ZM113.409 94.4818C200.315 102.913 299.887 128.592 410.862 217.968C393.712 223.38 371.221 228.066 344.061 227.471C312.754 226.786 232.909 221.164 168.26 183.977C133.57 163.983 112.277 139.496 112.768 119.968L113.409 94.4818ZM916.601 629.916C899.364 629.539 882.138 628.726 865.854 627.499C840.265 625.633 816.105 622.493 791.967 618.483C688.429 602.29 593.658 571.058 495.194 538.44C351.424 490.905 202.562 441.953 11.5568 437.769L4.99882 698.722L98.1722 700.763C96.9645 748.822 137.681 788.66 189.16 789.788C240.638 790.916 283.311 752.903 284.519 704.844C283.311 752.903 324.028 792.742 375.507 793.87C426.985 794.997 469.658 756.985 470.866 708.926L600.377 711.763C755.977 715.171 932.348 708.155 975.766 631.212C975.766 631.212 916.601 629.916 916.601 629.916Z" fill="#000000" fill-rule="nonzero" opacity="1" stroke="none"/>
</g>
</g>
</svg>
